<svg width="224" height="224" xmlns="http://www.w3.org/2000/svg">

 <g>
  <title>background</title>
  <rect fill="none" id="canvas_background" height="402" width="582" y="-1" x="-1"/>
 </g>
 <g>
  <title>Layer 1</title>
  <path id="svg_2" fill="#FAE6F5" d="m20,8l-4,0l0,-4c0,-2.209 -1.7891,-4 -4,-4s-4,1.791 -4,4l0,4l-4,0c-2.2109,0 -4,1.791 -4,4s1.7891,4 4,4l4,0l0,4c0,2.209 1.7891,4 4,4s4,-1.791 4,-4l0,-4l4,0c2.2109,0 4,-1.791 4,-4s-1.7891,-4 -4,-4z"/>
  <path id="svg_3" fill="#FAE6F5" d="m60,8l-4,0l0,-4c0,-2.209 -1.7891,-4 -4,-4s-4,1.791 -4,4l0,4l-4,0c-2.2109,0 -4,1.791 -4,4s1.7891,4 4,4l4,0l0,4c0,2.209 1.7891,4 4,4s4,-1.791 4,-4l0,-4l4,0c2.2109,0 4,-1.791 4,-4s-1.7891,-4 -4,-4z"/>
  <path id="svg_4" fill="#FAE6F5" d="m100,8l-4,0l0,-4c0,-2.209 -1.7891,-4 -4,-4s-4,1.791 -4,4l0,4l-4,0c-2.2109,0 -4,1.791 -4,4s1.7891,4 4,4l4,0l0,4c0,2.209 1.7891,4 4,4s4,-1.791 4,-4l0,-4l4,0c2.2109,0 4,-1.791 4,-4s-1.7891,-4 -4,-4z"/>
  <path id="svg_5" fill="#FAE6F5" d="m140,8l-4,0l0,-4c0,-2.209 -1.7891,-4 -4,-4s-4,1.791 -4,4l0,4l-4,0c-2.2109,0 -4,1.791 -4,4s1.7891,4 4,4l4,0l0,4c0,2.209 1.7891,4 4,4s4,-1.791 4,-4l0,-4l4,0c2.2109,0 4,-1.791 4,-4s-1.7891,-4 -4,-4z"/>
  <path id="svg_6" fill="#FAE6F5" d="m180,8l-4,0l0,-4c0,-2.209 -1.7891,-4 -4,-4s-4,1.791 -4,4l0,4l-4,0c-2.2109,0 -4,1.791 -4,4s1.7891,4 4,4l4,0l0,4c0,2.209 1.7891,4 4,4s4,-1.791 4,-4l0,-4l4,0c2.2109,0 4,-1.791 4,-4s-1.7891,-4 -4,-4z"/>
  <path id="svg_7" fill="#FAE6F5" d="m204,16l4,0l0,4c0,2.209 1.7891,4 4,4s4,-1.791 4,-4l0,-4l4,0c2.2109,0 4,-1.791 4,-4s-1.7891,-4 -4,-4l-4,0l0,-4c0,-2.209 -1.7891,-4 -4,-4s-4,1.791 -4,4l0,4l-4,0c-2.2109,0 -4,1.791 -4,4s1.7891,4 4,4z"/>
  <path id="svg_8" fill="#FAE6F5" d="m20,48l-4,0l0,-4c0,-2.209 -1.7891,-4 -4,-4s-4,1.791 -4,4l0,4l-4,0c-2.2109,0 -4,1.791 -4,4s1.7891,4 4,4l4,0l0,4c0,2.209 1.7891,4 4,4s4,-1.791 4,-4l0,-4l4,0c2.2109,0 4,-1.791 4,-4s-1.7891,-4 -4,-4z"/>
  <path id="svg_9" fill="#FAE6F5" d="m60,48l-4,0l0,-4c0,-2.209 -1.7891,-4 -4,-4s-4,1.791 -4,4l0,4l-4,0c-2.2109,0 -4,1.791 -4,4s1.7891,4 4,4l4,0l0,4c0,2.209 1.7891,4 4,4s4,-1.791 4,-4l0,-4l4,0c2.2109,0 4,-1.791 4,-4s-1.7891,-4 -4,-4z"/>
  <path id="svg_10" fill="#FAE6F5" d="m100,48l-4,0l0,-4c0,-2.209 -1.7891,-4 -4,-4s-4,1.791 -4,4l0,4l-4,0c-2.2109,0 -4,1.791 -4,4s1.7891,4 4,4l4,0l0,4c0,2.209 1.7891,4 4,4s4,-1.791 4,-4l0,-4l4,0c2.2109,0 4,-1.791 4,-4s-1.7891,-4 -4,-4z"/>
  <path id="svg_11" fill="#FAE6F5" d="m140,48l-4,0l0,-4c0,-2.209 -1.7891,-4 -4,-4s-4,1.791 -4,4l0,4l-4,0c-2.2109,0 -4,1.791 -4,4s1.7891,4 4,4l4,0l0,4c0,2.209 1.7891,4 4,4s4,-1.791 4,-4l0,-4l4,0c2.2109,0 4,-1.791 4,-4s-1.7891,-4 -4,-4z"/>
  <path id="svg_12" fill="#FAE6F5" d="m180,48l-4,0l0,-4c0,-2.209 -1.7891,-4 -4,-4s-4,1.791 -4,4l0,4l-4,0c-2.2109,0 -4,1.791 -4,4s1.7891,4 4,4l4,0l0,4c0,2.209 1.7891,4 4,4s4,-1.791 4,-4l0,-4l4,0c2.2109,0 4,-1.791 4,-4s-1.7891,-4 -4,-4z"/>
  <path id="svg_13" fill="#FAE6F5" d="m220,48l-4,0l0,-4c0,-2.209 -1.7891,-4 -4,-4s-4,1.791 -4,4l0,4l-4,0c-2.2109,0 -4,1.791 -4,4s1.7891,4 4,4l4,0l0,4c0,2.209 1.7891,4 4,4s4,-1.791 4,-4l0,-4l4,0c2.2109,0 4,-1.791 4,-4s-1.7891,-4 -4,-4z"/>
  <path id="svg_14" fill="#FAE6F5" d="m20,88l-4,0l0,-4c0,-2.209 -1.7891,-4 -4,-4s-4,1.791 -4,4l0,4l-4,0c-2.2109,0 -4,1.791 -4,4s1.7891,4 4,4l4,0l0,4c0,2.209 1.7891,4 4,4s4,-1.791 4,-4l0,-4l4,0c2.2109,0 4,-1.791 4,-4s-1.7891,-4 -4,-4z"/>
  <path id="svg_15" fill="#FAE6F5" d="m60,88l-4,0l0,-4c0,-2.209 -1.7891,-4 -4,-4s-4,1.791 -4,4l0,4l-4,0c-2.2109,0 -4,1.791 -4,4s1.7891,4 4,4l4,0l0,4c0,2.209 1.7891,4 4,4s4,-1.791 4,-4l0,-4l4,0c2.2109,0 4,-1.791 4,-4s-1.7891,-4 -4,-4z"/>
  <path id="svg_16" fill="#FAE6F5" d="m100,88l-4,0l0,-4c0,-2.209 -1.7891,-4 -4,-4s-4,1.791 -4,4l0,4l-4,0c-2.2109,0 -4,1.791 -4,4s1.7891,4 4,4l4,0l0,4c0,2.209 1.7891,4 4,4s4,-1.791 4,-4l0,-4l4,0c2.2109,0 4,-1.791 4,-4s-1.7891,-4 -4,-4z"/>
  <path id="svg_17" fill="#FAE6F5" d="m140,88l-4,0l0,-4c0,-2.209 -1.7891,-4 -4,-4s-4,1.791 -4,4l0,4l-4,0c-2.2109,0 -4,1.791 -4,4s1.7891,4 4,4l4,0l0,4c0,2.209 1.7891,4 4,4s4,-1.791 4,-4l0,-4l4,0c2.2109,0 4,-1.791 4,-4s-1.7891,-4 -4,-4z"/>
  <path id="svg_18" fill="#FAE6F5" d="m180,88l-4,0l0,-4c0,-2.209 -1.7891,-4 -4,-4s-4,1.791 -4,4l0,4l-4,0c-2.2109,0 -4,1.791 -4,4s1.7891,4 4,4l4,0l0,4c0,2.209 1.7891,4 4,4s4,-1.791 4,-4l0,-4l4,0c2.2109,0 4,-1.791 4,-4s-1.7891,-4 -4,-4z"/>
  <path id="svg_19" fill="#FAE6F5" d="m220,88l-4,0l0,-4c0,-2.209 -1.7891,-4 -4,-4s-4,1.791 -4,4l0,4l-4,0c-2.2109,0 -4,1.791 -4,4s1.7891,4 4,4l4,0l0,4c0,2.209 1.7891,4 4,4s4,-1.791 4,-4l0,-4l4,0c2.2109,0 4,-1.791 4,-4s-1.7891,-4 -4,-4z"/>
  <path id="svg_20" fill="#FAE6F5" d="m20,128l-4,0l0,-4c0,-2.209 -1.7891,-4 -4,-4s-4,1.791 -4,4l0,4l-4,0c-2.2109,0 -4,1.791 -4,4s1.7891,4 4,4l4,0l0,4c0,2.209 1.7891,4 4,4s4,-1.791 4,-4l0,-4l4,0c2.2109,0 4,-1.791 4,-4s-1.7891,-4 -4,-4z"/>
  <path id="svg_21" fill="#FAE6F5" d="m60,128l-4,0l0,-4c0,-2.209 -1.7891,-4 -4,-4s-4,1.791 -4,4l0,4l-4,0c-2.2109,0 -4,1.791 -4,4s1.7891,4 4,4l4,0l0,4c0,2.209 1.7891,4 4,4s4,-1.791 4,-4l0,-4l4,0c2.2109,0 4,-1.791 4,-4s-1.7891,-4 -4,-4z"/>
  <path id="svg_22" fill="#FAE6F5" d="m100,128l-4,0l0,-4c0,-2.209 -1.7891,-4 -4,-4s-4,1.791 -4,4l0,4l-4,0c-2.2109,0 -4,1.791 -4,4s1.7891,4 4,4l4,0l0,4c0,2.209 1.7891,4 4,4s4,-1.791 4,-4l0,-4l4,0c2.2109,0 4,-1.791 4,-4s-1.7891,-4 -4,-4z"/>
  <path id="svg_23" fill="#FAE6F5" d="m140,128l-4,0l0,-4c0,-2.209 -1.7891,-4 -4,-4s-4,1.791 -4,4l0,4l-4,0c-2.2109,0 -4,1.791 -4,4s1.7891,4 4,4l4,0l0,4c0,2.209 1.7891,4 4,4s4,-1.791 4,-4l0,-4l4,0c2.2109,0 4,-1.791 4,-4s-1.7891,-4 -4,-4z"/>
  <path id="svg_24" fill="#FAE6F5" d="m180,128l-4,0l0,-4c0,-2.209 -1.7891,-4 -4,-4s-4,1.791 -4,4l0,4l-4,0c-2.2109,0 -4,1.791 -4,4s1.7891,4 4,4l4,0l0,4c0,2.209 1.7891,4 4,4s4,-1.791 4,-4l0,-4l4,0c2.2109,0 4,-1.791 4,-4s-1.7891,-4 -4,-4z"/>
  <path id="svg_25" fill="#FAE6F5" d="m220,128l-4,0l0,-4c0,-2.209 -1.7891,-4 -4,-4s-4,1.791 -4,4l0,4l-4,0c-2.2109,0 -4,1.791 -4,4s1.7891,4 4,4l4,0l0,4c0,2.209 1.7891,4 4,4s4,-1.791 4,-4l0,-4l4,0c2.2109,0 4,-1.791 4,-4s-1.7891,-4 -4,-4z"/>
  <path id="svg_26" fill="#FAE6F5" d="m20,168l-4,0l0,-4c0,-2.209 -1.7891,-4 -4,-4s-4,1.791 -4,4l0,4l-4,0c-2.2109,0 -4,1.791 -4,4s1.7891,4 4,4l4,0l0,4c0,2.209 1.7891,4 4,4s4,-1.791 4,-4l0,-4l4,0c2.2109,0 4,-1.791 4,-4s-1.7891,-4 -4,-4z"/>
  <path id="svg_27" fill="#FAE6F5" d="m60,168l-4,0l0,-4c0,-2.209 -1.7891,-4 -4,-4s-4,1.791 -4,4l0,4l-4,0c-2.2109,0 -4,1.791 -4,4s1.7891,4 4,4l4,0l0,4c0,2.209 1.7891,4 4,4s4,-1.791 4,-4l0,-4l4,0c2.2109,0 4,-1.791 4,-4s-1.7891,-4 -4,-4z"/>
  <path id="svg_28" fill="#FAE6F5" d="m100,168l-4,0l0,-4c0,-2.209 -1.7891,-4 -4,-4s-4,1.791 -4,4l0,4l-4,0c-2.2109,0 -4,1.791 -4,4s1.7891,4 4,4l4,0l0,4c0,2.209 1.7891,4 4,4s4,-1.791 4,-4l0,-4l4,0c2.2109,0 4,-1.791 4,-4s-1.7891,-4 -4,-4z"/>
  <path id="svg_29" fill="#FAE6F5" d="m140,168l-4,0l0,-4c0,-2.209 -1.7891,-4 -4,-4s-4,1.791 -4,4l0,4l-4,0c-2.2109,0 -4,1.791 -4,4s1.7891,4 4,4l4,0l0,4c0,2.209 1.7891,4 4,4s4,-1.791 4,-4l0,-4l4,0c2.2109,0 4,-1.791 4,-4s-1.7891,-4 -4,-4z"/>
  <path id="svg_30" fill="#FAE6F5" d="m180,168l-4,0l0,-4c0,-2.209 -1.7891,-4 -4,-4s-4,1.791 -4,4l0,4l-4,0c-2.2109,0 -4,1.791 -4,4s1.7891,4 4,4l4,0l0,4c0,2.209 1.7891,4 4,4s4,-1.791 4,-4l0,-4l4,0c2.2109,0 4,-1.791 4,-4s-1.7891,-4 -4,-4z"/>
  <path id="svg_31" fill="#FAE6F5" d="m220,168l-4,0l0,-4c0,-2.209 -1.7891,-4 -4,-4s-4,1.791 -4,4l0,4l-4,0c-2.2109,0 -4,1.791 -4,4s1.7891,4 4,4l4,0l0,4c0,2.209 1.7891,4 4,4s4,-1.791 4,-4l0,-4l4,0c2.2109,0 4,-1.791 4,-4s-1.7891,-4 -4,-4z"/>
  <path id="svg_32" fill="#FAE6F5" d="m20,208l-4,0l0,-4c0,-2.209 -1.7891,-4 -4,-4s-4,1.791 -4,4l0,4l-4,0c-2.2109,0 -4,1.791 -4,4s1.7891,4 4,4l4,0l0,4c0,2.209 1.7891,4 4,4s4,-1.791 4,-4l0,-4l4,0c2.2109,0 4,-1.791 4,-4s-1.7891,-4 -4,-4z"/>
  <path id="svg_33" fill="#FAE6F5" d="m60,208l-4,0l0,-4c0,-2.209 -1.7891,-4 -4,-4s-4,1.791 -4,4l0,4l-4,0c-2.2109,0 -4,1.791 -4,4s1.7891,4 4,4l4,0l0,4c0,2.209 1.7891,4 4,4s4,-1.791 4,-4l0,-4l4,0c2.2109,0 4,-1.791 4,-4s-1.7891,-4 -4,-4z"/>
  <path id="svg_34" fill="#FAE6F5" d="m100,208l-4,0l0,-4c0,-2.209 -1.7891,-4 -4,-4s-4,1.791 -4,4l0,4l-4,0c-2.2109,0 -4,1.791 -4,4s1.7891,4 4,4l4,0l0,4c0,2.209 1.7891,4 4,4s4,-1.791 4,-4l0,-4l4,0c2.2109,0 4,-1.791 4,-4s-1.7891,-4 -4,-4z"/>
  <path id="svg_35" fill="#FAE6F5" d="m140,208l-4,0l0,-4c0,-2.209 -1.7891,-4 -4,-4s-4,1.791 -4,4l0,4l-4,0c-2.2109,0 -4,1.791 -4,4s1.7891,4 4,4l4,0l0,4c0,2.209 1.7891,4 4,4s4,-1.791 4,-4l0,-4l4,0c2.2109,0 4,-1.791 4,-4s-1.7891,-4 -4,-4z"/>
  <path id="svg_36" fill="#FAE6F5" d="m180,208l-4,0l0,-4c0,-2.209 -1.7891,-4 -4,-4s-4,1.791 -4,4l0,4l-4,0c-2.2109,0 -4,1.791 -4,4s1.7891,4 4,4l4,0l0,4c0,2.209 1.7891,4 4,4s4,-1.791 4,-4l0,-4l4,0c2.2109,0 4,-1.791 4,-4s-1.7891,-4 -4,-4z"/>
  <path id="svg_37" fill="#FAE6F5" d="m220,208l-4,0l0,-4c0,-2.209 -1.7891,-4 -4,-4s-4,1.791 -4,4l0,4l-4,0c-2.2109,0 -4,1.791 -4,4s1.7891,4 4,4l4,0l0,4c0,2.209 1.7891,4 4,4s4,-1.791 4,-4l0,-4l4,0c2.2109,0 4,-1.791 4,-4s-1.7891,-4 -4,-4z"/>
  <path id="svg_39" fill="#643458" d="m43.5545,10.6035c-12.4961,0 -21.5664,8.6172 -21.5664,20.4883c0,11.8633 8.8906,20.4746 21.1367,20.4746c6.3516,0 11.8242,-2.0586 15.8281,-5.9551c3.8398,-3.7383 5.957,-8.8945 5.9531,-14.6133c-0.2811,-12.0078 -9.0624,-20.3945 -21.3515,-20.3945z"/>
  <path id="svg_40" fill="#ED5175" d="m53.3749,39.877c-2.4805,2.4141 -6.0273,3.6895 -10.25,3.6895c-7.7344,0 -13.1367,-5.1289 -13.1367,-12.4746c0,-7.4688 5.4531,-12.4883 13.5664,-12.4883c7.9336,0 13.1719,4.9395 13.3516,12.4902c-0.0001,3.4472 -1.254,6.5664 -3.5313,8.7832z"/>
  <rect id="svg_41" y="58.3242" x="25.8241" width="35.9531" height="132.1777" fill="#643458"/>
  <rect id="svg_42" y="66.3242" x="33.8241" width="19.9531" height="116.1777" fill="#ED5175"/>
  <path id="svg_43" fill="#643458" d="m156.5819,58.3242c-16.6719,0 -26.8789,5.7539 -32.793,11.166l-1.125,-11.166l-40.6758,0l0,132.1778l39.8359,0l0,-69.4707c0,-2.9922 1.2109,-9.2051 1.9727,-10.8457c4.8125,-10.3652 11.3047,-10.3652 21.1367,-10.3652c11.3242,0 20.8906,10.6191 20.8906,23.1875l0,67.4941l40,0l0,-74.6816c0.0001,-39.504 -25.5273,-57.4962 -49.2421,-57.4962z"/>
  <path id="svg_44" fill="#ED5175" d="m197.8241,182.502l-24,0l0,-59.4941c0,-16.9062 -13.2305,-31.1875 -28.8906,-31.1875c-10.0469,0 -21.4336,0 -28.3945,14.998c-1.4375,3.0996 -2.7148,10.5293 -2.7148,14.2129l0,61.4707l-23.8361,0l0,-116.1778l25.4414,0l1.6328,16.1777l6.5547,0l1.1719,-1.8906c2.668,-4.2949 11.1055,-14.2871 31.793,-14.2871c19.8633,0 41.2422,15.4883 41.2422,49.4961l0,66.6817z"/>
 </g>
</svg>