<svg width="224" height="224" xmlns="http://www.w3.org/2000/svg">

 <g>
  <title>background</title>
  <rect fill="none" id="canvas_background" height="402" width="582" y="-1" x="-1"/>
 </g>
 <g>
  <title>Layer 1</title>
  <path id="svg_2" fill="#FAE6F5" d="m20,8l-4,0l0,-4c0,-2.209 -1.7891,-4 -4,-4s-4,1.791 -4,4l0,4l-4,0c-2.2109,0 -4,1.791 -4,4s1.7891,4 4,4l4,0l0,4c0,2.209 1.7891,4 4,4s4,-1.791 4,-4l0,-4l4,0c2.2109,0 4,-1.791 4,-4s-1.7891,-4 -4,-4z"/>
  <path id="svg_3" fill="#FAE6F5" d="m60,8l-4,0l0,-4c0,-2.209 -1.7891,-4 -4,-4s-4,1.791 -4,4l0,4l-4,0c-2.2109,0 -4,1.791 -4,4s1.7891,4 4,4l4,0l0,4c0,2.209 1.7891,4 4,4s4,-1.791 4,-4l0,-4l4,0c2.2109,0 4,-1.791 4,-4s-1.7891,-4 -4,-4z"/>
  <path id="svg_4" fill="#FAE6F5" d="m100,8l-4,0l0,-4c0,-2.209 -1.7891,-4 -4,-4s-4,1.791 -4,4l0,4l-4,0c-2.2109,0 -4,1.791 -4,4s1.7891,4 4,4l4,0l0,4c0,2.209 1.7891,4 4,4s4,-1.791 4,-4l0,-4l4,0c2.2109,0 4,-1.791 4,-4s-1.7891,-4 -4,-4z"/>
  <path id="svg_5" fill="#FAE6F5" d="m140,8l-4,0l0,-4c0,-2.209 -1.7891,-4 -4,-4s-4,1.791 -4,4l0,4l-4,0c-2.2109,0 -4,1.791 -4,4s1.7891,4 4,4l4,0l0,4c0,2.209 1.7891,4 4,4s4,-1.791 4,-4l0,-4l4,0c2.2109,0 4,-1.791 4,-4s-1.7891,-4 -4,-4z"/>
  <path id="svg_6" fill="#FAE6F5" d="m180,8l-4,0l0,-4c0,-2.209 -1.7891,-4 -4,-4s-4,1.791 -4,4l0,4l-4,0c-2.2109,0 -4,1.791 -4,4s1.7891,4 4,4l4,0l0,4c0,2.209 1.7891,4 4,4s4,-1.791 4,-4l0,-4l4,0c2.2109,0 4,-1.791 4,-4s-1.7891,-4 -4,-4z"/>
  <path id="svg_7" fill="#FAE6F5" d="m204,16l4,0l0,4c0,2.209 1.7891,4 4,4s4,-1.791 4,-4l0,-4l4,0c2.2109,0 4,-1.791 4,-4s-1.7891,-4 -4,-4l-4,0l0,-4c0,-2.209 -1.7891,-4 -4,-4s-4,1.791 -4,4l0,4l-4,0c-2.2109,0 -4,1.791 -4,4s1.7891,4 4,4z"/>
  <path id="svg_8" fill="#FAE6F5" d="m20,48l-4,0l0,-4c0,-2.209 -1.7891,-4 -4,-4s-4,1.791 -4,4l0,4l-4,0c-2.2109,0 -4,1.791 -4,4s1.7891,4 4,4l4,0l0,4c0,2.209 1.7891,4 4,4s4,-1.791 4,-4l0,-4l4,0c2.2109,0 4,-1.791 4,-4s-1.7891,-4 -4,-4z"/>
  <path id="svg_9" fill="#FAE6F5" d="m60,48l-4,0l0,-4c0,-2.209 -1.7891,-4 -4,-4s-4,1.791 -4,4l0,4l-4,0c-2.2109,0 -4,1.791 -4,4s1.7891,4 4,4l4,0l0,4c0,2.209 1.7891,4 4,4s4,-1.791 4,-4l0,-4l4,0c2.2109,0 4,-1.791 4,-4s-1.7891,-4 -4,-4z"/>
  <path id="svg_10" fill="#FAE6F5" d="m100,48l-4,0l0,-4c0,-2.209 -1.7891,-4 -4,-4s-4,1.791 -4,4l0,4l-4,0c-2.2109,0 -4,1.791 -4,4s1.7891,4 4,4l4,0l0,4c0,2.209 1.7891,4 4,4s4,-1.791 4,-4l0,-4l4,0c2.2109,0 4,-1.791 4,-4s-1.7891,-4 -4,-4z"/>
  <path id="svg_11" fill="#FAE6F5" d="m140,48l-4,0l0,-4c0,-2.209 -1.7891,-4 -4,-4s-4,1.791 -4,4l0,4l-4,0c-2.2109,0 -4,1.791 -4,4s1.7891,4 4,4l4,0l0,4c0,2.209 1.7891,4 4,4s4,-1.791 4,-4l0,-4l4,0c2.2109,0 4,-1.791 4,-4s-1.7891,-4 -4,-4z"/>
  <path id="svg_12" fill="#FAE6F5" d="m180,48l-4,0l0,-4c0,-2.209 -1.7891,-4 -4,-4s-4,1.791 -4,4l0,4l-4,0c-2.2109,0 -4,1.791 -4,4s1.7891,4 4,4l4,0l0,4c0,2.209 1.7891,4 4,4s4,-1.791 4,-4l0,-4l4,0c2.2109,0 4,-1.791 4,-4s-1.7891,-4 -4,-4z"/>
  <path id="svg_13" fill="#FAE6F5" d="m220,48l-4,0l0,-4c0,-2.209 -1.7891,-4 -4,-4s-4,1.791 -4,4l0,4l-4,0c-2.2109,0 -4,1.791 -4,4s1.7891,4 4,4l4,0l0,4c0,2.209 1.7891,4 4,4s4,-1.791 4,-4l0,-4l4,0c2.2109,0 4,-1.791 4,-4s-1.7891,-4 -4,-4z"/>
  <path id="svg_14" fill="#FAE6F5" d="m20,88l-4,0l0,-4c0,-2.209 -1.7891,-4 -4,-4s-4,1.791 -4,4l0,4l-4,0c-2.2109,0 -4,1.791 -4,4s1.7891,4 4,4l4,0l0,4c0,2.209 1.7891,4 4,4s4,-1.791 4,-4l0,-4l4,0c2.2109,0 4,-1.791 4,-4s-1.7891,-4 -4,-4z"/>
  <path id="svg_15" fill="#FAE6F5" d="m60,88l-4,0l0,-4c0,-2.209 -1.7891,-4 -4,-4s-4,1.791 -4,4l0,4l-4,0c-2.2109,0 -4,1.791 -4,4s1.7891,4 4,4l4,0l0,4c0,2.209 1.7891,4 4,4s4,-1.791 4,-4l0,-4l4,0c2.2109,0 4,-1.791 4,-4s-1.7891,-4 -4,-4z"/>
  <path id="svg_16" fill="#FAE6F5" d="m100,88l-4,0l0,-4c0,-2.209 -1.7891,-4 -4,-4s-4,1.791 -4,4l0,4l-4,0c-2.2109,0 -4,1.791 -4,4s1.7891,4 4,4l4,0l0,4c0,2.209 1.7891,4 4,4s4,-1.791 4,-4l0,-4l4,0c2.2109,0 4,-1.791 4,-4s-1.7891,-4 -4,-4z"/>
  <path id="svg_17" fill="#FAE6F5" d="m140,88l-4,0l0,-4c0,-2.209 -1.7891,-4 -4,-4s-4,1.791 -4,4l0,4l-4,0c-2.2109,0 -4,1.791 -4,4s1.7891,4 4,4l4,0l0,4c0,2.209 1.7891,4 4,4s4,-1.791 4,-4l0,-4l4,0c2.2109,0 4,-1.791 4,-4s-1.7891,-4 -4,-4z"/>
  <path id="svg_18" fill="#FAE6F5" d="m180,88l-4,0l0,-4c0,-2.209 -1.7891,-4 -4,-4s-4,1.791 -4,4l0,4l-4,0c-2.2109,0 -4,1.791 -4,4s1.7891,4 4,4l4,0l0,4c0,2.209 1.7891,4 4,4s4,-1.791 4,-4l0,-4l4,0c2.2109,0 4,-1.791 4,-4s-1.7891,-4 -4,-4z"/>
  <path id="svg_19" fill="#FAE6F5" d="m220,88l-4,0l0,-4c0,-2.209 -1.7891,-4 -4,-4s-4,1.791 -4,4l0,4l-4,0c-2.2109,0 -4,1.791 -4,4s1.7891,4 4,4l4,0l0,4c0,2.209 1.7891,4 4,4s4,-1.791 4,-4l0,-4l4,0c2.2109,0 4,-1.791 4,-4s-1.7891,-4 -4,-4z"/>
  <path id="svg_20" fill="#FAE6F5" d="m20,128l-4,0l0,-4c0,-2.209 -1.7891,-4 -4,-4s-4,1.791 -4,4l0,4l-4,0c-2.2109,0 -4,1.791 -4,4s1.7891,4 4,4l4,0l0,4c0,2.209 1.7891,4 4,4s4,-1.791 4,-4l0,-4l4,0c2.2109,0 4,-1.791 4,-4s-1.7891,-4 -4,-4z"/>
  <path id="svg_21" fill="#FAE6F5" d="m60,128l-4,0l0,-4c0,-2.209 -1.7891,-4 -4,-4s-4,1.791 -4,4l0,4l-4,0c-2.2109,0 -4,1.791 -4,4s1.7891,4 4,4l4,0l0,4c0,2.209 1.7891,4 4,4s4,-1.791 4,-4l0,-4l4,0c2.2109,0 4,-1.791 4,-4s-1.7891,-4 -4,-4z"/>
  <path id="svg_22" fill="#FAE6F5" d="m100,128l-4,0l0,-4c0,-2.209 -1.7891,-4 -4,-4s-4,1.791 -4,4l0,4l-4,0c-2.2109,0 -4,1.791 -4,4s1.7891,4 4,4l4,0l0,4c0,2.209 1.7891,4 4,4s4,-1.791 4,-4l0,-4l4,0c2.2109,0 4,-1.791 4,-4s-1.7891,-4 -4,-4z"/>
  <path id="svg_23" fill="#FAE6F5" d="m140,128l-4,0l0,-4c0,-2.209 -1.7891,-4 -4,-4s-4,1.791 -4,4l0,4l-4,0c-2.2109,0 -4,1.791 -4,4s1.7891,4 4,4l4,0l0,4c0,2.209 1.7891,4 4,4s4,-1.791 4,-4l0,-4l4,0c2.2109,0 4,-1.791 4,-4s-1.7891,-4 -4,-4z"/>
  <path id="svg_24" fill="#FAE6F5" d="m180,128l-4,0l0,-4c0,-2.209 -1.7891,-4 -4,-4s-4,1.791 -4,4l0,4l-4,0c-2.2109,0 -4,1.791 -4,4s1.7891,4 4,4l4,0l0,4c0,2.209 1.7891,4 4,4s4,-1.791 4,-4l0,-4l4,0c2.2109,0 4,-1.791 4,-4s-1.7891,-4 -4,-4z"/>
  <path id="svg_25" fill="#FAE6F5" d="m220,128l-4,0l0,-4c0,-2.209 -1.7891,-4 -4,-4s-4,1.791 -4,4l0,4l-4,0c-2.2109,0 -4,1.791 -4,4s1.7891,4 4,4l4,0l0,4c0,2.209 1.7891,4 4,4s4,-1.791 4,-4l0,-4l4,0c2.2109,0 4,-1.791 4,-4s-1.7891,-4 -4,-4z"/>
  <path id="svg_26" fill="#FAE6F5" d="m20,168l-4,0l0,-4c0,-2.209 -1.7891,-4 -4,-4s-4,1.791 -4,4l0,4l-4,0c-2.2109,0 -4,1.791 -4,4s1.7891,4 4,4l4,0l0,4c0,2.209 1.7891,4 4,4s4,-1.791 4,-4l0,-4l4,0c2.2109,0 4,-1.791 4,-4s-1.7891,-4 -4,-4z"/>
  <path id="svg_27" fill="#FAE6F5" d="m60,168l-4,0l0,-4c0,-2.209 -1.7891,-4 -4,-4s-4,1.791 -4,4l0,4l-4,0c-2.2109,0 -4,1.791 -4,4s1.7891,4 4,4l4,0l0,4c0,2.209 1.7891,4 4,4s4,-1.791 4,-4l0,-4l4,0c2.2109,0 4,-1.791 4,-4s-1.7891,-4 -4,-4z"/>
  <path id="svg_28" fill="#FAE6F5" d="m100,168l-4,0l0,-4c0,-2.209 -1.7891,-4 -4,-4s-4,1.791 -4,4l0,4l-4,0c-2.2109,0 -4,1.791 -4,4s1.7891,4 4,4l4,0l0,4c0,2.209 1.7891,4 4,4s4,-1.791 4,-4l0,-4l4,0c2.2109,0 4,-1.791 4,-4s-1.7891,-4 -4,-4z"/>
  <path id="svg_29" fill="#FAE6F5" d="m140,168l-4,0l0,-4c0,-2.209 -1.7891,-4 -4,-4s-4,1.791 -4,4l0,4l-4,0c-2.2109,0 -4,1.791 -4,4s1.7891,4 4,4l4,0l0,4c0,2.209 1.7891,4 4,4s4,-1.791 4,-4l0,-4l4,0c2.2109,0 4,-1.791 4,-4s-1.7891,-4 -4,-4z"/>
  <path id="svg_30" fill="#FAE6F5" d="m180,168l-4,0l0,-4c0,-2.209 -1.7891,-4 -4,-4s-4,1.791 -4,4l0,4l-4,0c-2.2109,0 -4,1.791 -4,4s1.7891,4 4,4l4,0l0,4c0,2.209 1.7891,4 4,4s4,-1.791 4,-4l0,-4l4,0c2.2109,0 4,-1.791 4,-4s-1.7891,-4 -4,-4z"/>
  <path id="svg_31" fill="#FAE6F5" d="m220,168l-4,0l0,-4c0,-2.209 -1.7891,-4 -4,-4s-4,1.791 -4,4l0,4l-4,0c-2.2109,0 -4,1.791 -4,4s1.7891,4 4,4l4,0l0,4c0,2.209 1.7891,4 4,4s4,-1.791 4,-4l0,-4l4,0c2.2109,0 4,-1.791 4,-4s-1.7891,-4 -4,-4z"/>
  <path id="svg_32" fill="#FAE6F5" d="m20,208l-4,0l0,-4c0,-2.209 -1.7891,-4 -4,-4s-4,1.791 -4,4l0,4l-4,0c-2.2109,0 -4,1.791 -4,4s1.7891,4 4,4l4,0l0,4c0,2.209 1.7891,4 4,4s4,-1.791 4,-4l0,-4l4,0c2.2109,0 4,-1.791 4,-4s-1.7891,-4 -4,-4z"/>
  <path id="svg_33" fill="#FAE6F5" d="m60,208l-4,0l0,-4c0,-2.209 -1.7891,-4 -4,-4s-4,1.791 -4,4l0,4l-4,0c-2.2109,0 -4,1.791 -4,4s1.7891,4 4,4l4,0l0,4c0,2.209 1.7891,4 4,4s4,-1.791 4,-4l0,-4l4,0c2.2109,0 4,-1.791 4,-4s-1.7891,-4 -4,-4z"/>
  <path id="svg_34" fill="#FAE6F5" d="m100,208l-4,0l0,-4c0,-2.209 -1.7891,-4 -4,-4s-4,1.791 -4,4l0,4l-4,0c-2.2109,0 -4,1.791 -4,4s1.7891,4 4,4l4,0l0,4c0,2.209 1.7891,4 4,4s4,-1.791 4,-4l0,-4l4,0c2.2109,0 4,-1.791 4,-4s-1.7891,-4 -4,-4z"/>
  <path id="svg_35" fill="#FAE6F5" d="m140,208l-4,0l0,-4c0,-2.209 -1.7891,-4 -4,-4s-4,1.791 -4,4l0,4l-4,0c-2.2109,0 -4,1.791 -4,4s1.7891,4 4,4l4,0l0,4c0,2.209 1.7891,4 4,4s4,-1.791 4,-4l0,-4l4,0c2.2109,0 4,-1.791 4,-4s-1.7891,-4 -4,-4z"/>
  <path id="svg_36" fill="#FAE6F5" d="m180,208l-4,0l0,-4c0,-2.209 -1.7891,-4 -4,-4s-4,1.791 -4,4l0,4l-4,0c-2.2109,0 -4,1.791 -4,4s1.7891,4 4,4l4,0l0,4c0,2.209 1.7891,4 4,4s4,-1.791 4,-4l0,-4l4,0c2.2109,0 4,-1.791 4,-4s-1.7891,-4 -4,-4z"/>
  <path id="svg_37" fill="#FAE6F5" d="m220,208l-4,0l0,-4c0,-2.209 -1.7891,-4 -4,-4s-4,1.791 -4,4l0,4l-4,0c-2.2109,0 -4,1.791 -4,4s1.7891,4 4,4l4,0l0,4c0,2.209 1.7891,4 4,4s4,-1.791 4,-4l0,-4l4,0c2.2109,0 4,-1.791 4,-4s-1.7891,-4 -4,-4z"/>
  <path id="svg_45" fill="#FAE6F5" d="m140,8l-4,0l0,-4c0,-2.209 -1.7891,-4 -4,-4s-4,1.791 -4,4l0,4l-4,0c-2.2109,0 -4,1.791 -4,4s1.7891,4 4,4l4,0l0,4c0,2.209 1.7891,4 4,4s4,-1.791 4,-4l0,-4l4,0c2.2109,0 4,-1.791 4,-4s-1.7891,-4 -4,-4z"/>
  <path id="svg_46" fill="#FAE6F5" d="m140,8l-4,0l0,-4c0,-2.209 -1.7891,-4 -4,-4s-4,1.791 -4,4l0,4l-4,0c-2.2109,0 -4,1.791 -4,4s1.7891,4 4,4l4,0l0,4c0,2.209 1.7891,4 4,4s4,-1.791 4,-4l0,-4l4,0c2.2109,0 4,-1.791 4,-4s-1.7891,-4 -4,-4z"/>
  <rect stroke="null" transform="rotate(-38.56654739379883 166.90232849121094,46.65243148803711) " id="svg_48" height="99.295716" width="25.225909" y="-2.995424" x="154.289381" stroke-opacity="null" stroke-width="null" fill="#643458"/>
  <rect stroke="null" transform="rotate(-55.388465881347656 137.3372039794922,77.52191925048825) " id="svg_49" height="99.295716" width="25.225909" y="27.87407" x="124.724231" stroke-opacity="null" stroke-width="null" fill="#643458"/>
  <rect stroke="null" transform="rotate(-68.91543579101562 118.64158630371094,111.86964416503906) " id="svg_50" height="99.295716" width="25.225909" y="62.221818" x="106.028622" stroke-opacity="null" stroke-width="null" fill="#643458"/>
  <rect stroke="null" transform="rotate(-84.15569305419922 108.64160156249999,151.43478393554685) " id="svg_51" height="99.295716" width="25.225909" y="101.78695" x="96.028645" stroke-opacity="null" stroke-width="null" fill="#643458"/>
  <rect stroke="null" transform="rotate(-90.0042724609375 107.33726501464848,183.6086120605469) " id="svg_52" height="99.295716" width="25.225909" y="133.960784" x="94.7243" stroke-opacity="null" stroke-width="null" fill="#643458"/>
  <rect stroke="null" transform="rotate(-0.033263564109802246 22.554841995262603,174.4782257080131) " id="svg_53" height="99.295716" width="25.225909" y="124.830372" x="9.941881" stroke-opacity="null" stroke-width="null" fill="#643458"/>
  <rect stroke="null" transform="rotate(-0.033263564109802246 190.81529235833543,174.47825622555126) " id="svg_54" height="99.295716" width="25.225909" y="124.830372" x="178.202364" stroke-opacity="null" stroke-width="null" fill="#643458"/>
  <rect stroke="null" transform="rotate(90.01179504394531 106.68533325195314,211.87406921386722) " id="svg_55" height="144.078755" width="25.225909" y="139.834696" x="94.072373" stroke-opacity="null" stroke-width="null" fill="#643458"/>
  <rect stroke="null" transform="rotate(-38.56654739379883 167.33711242675784,46.86982345581055) " id="svg_56" height="88.077396" width="16.281161" y="2.831128" x="159.196537" stroke-opacity="null" stroke-width="null" fill="#ed517f"/>
  <rect stroke="null" transform="rotate(-55.260276794433594 137.3371887207031,77.73931884765626) " id="svg_58" height="88.077396" width="16.281161" y="33.700622" x="129.196605" stroke-opacity="null" stroke-width="null" fill="#fdca8d"/>
  <rect stroke="null" transform="rotate(-69.38819122314453 119.07635498046878,111.65229034423828) " id="svg_59" height="88.077396" width="16.281161" y="67.61359" x="110.935776" stroke-opacity="null" stroke-width="null" fill="#c889f8"/>
  <rect stroke="null" transform="rotate(-84.11016845703125 108.20681762695312,151.2174072265625) " id="svg_60" height="88.077396" width="16.281161" y="107.178713" x="100.066237" stroke-opacity="null" stroke-width="null" fill="#fdca8d"/>
  <rect stroke="null" transform="rotate(-89.70962524414062 107.3372573852539,183.82603454589844) " id="svg_61" height="88.104285" width="15.412013" y="139.773888" x="99.631245" stroke-opacity="null" stroke-width="null" fill="#ed517f"/>
  <rect stroke="null" transform="rotate(-0.033263564109802246 22.12118911746311,174.2609710693373) " id="svg_63" height="87.561914" width="16.52119" y="130.480008" x="13.860595" stroke-opacity="null" stroke-width="null" fill="#c889f8"/>
  <rect stroke="null" transform="rotate(-0.033263564109802246 190.81632995607222,174.26071166991392) " id="svg_64" height="87.561914" width="16.520939" y="130.479755" x="182.555861" stroke-opacity="null" stroke-width="null" fill="#c889f8"/>
  <rect stroke="null" transform="rotate(90.01179504394531 106.46683502197264,212.09272766113284) " id="svg_65" height="185.383074" width="16.964789" y="119.401194" x="97.984443" stroke-opacity="null" stroke-width="null" fill="#c889f8"/>
 </g>
</svg>